<svg width="1189" height="401" viewBox="0 0 1189 401" fill="none" xmlns="http://www.w3.org/2000/svg">
<mask id="mask0_132_15" style="mask-type:alpha" maskUnits="userSpaceOnUse" x="4" y="0" width="1181" height="393">
<rect x="4" width="1180.27" height="392.184" rx="15" fill="white"/>
</mask>
<g mask="url(#mask0_132_15)">
<g opacity="0.0946098" filter="url(#filter0_d_132_15)">
<path d="M98.646 432.268L164.135 304.606C168.192 296.697 167.722 287.189 162.896 279.718L84.921 159.107C80.0676 151.622 71.6017 147.28 62.7184 147.718L-80.7314 154.741C-89.6287 155.207 -97.6111 160.344 -101.668 168.253L-167.157 295.915C-171.214 303.824 -170.744 313.332 -165.918 320.803L-87.9432 441.414C-83.1171 448.885 -74.6512 453.228 -65.7406 452.804L77.7092 445.78C86.5925 445.342 94.5889 440.177 98.646 432.268Z" fill="url(#paint0_linear_132_15)"/>
</g>
<g opacity="0.0946098" filter="url(#filter1_d_132_15)">
<path d="M1032 -39.1457L1001.78 101.116C999.911 109.806 1002.83 118.868 1009.42 124.835L1115.96 221.155C1122.58 227.129 1131.88 229.133 1140.35 226.41L1277.09 182.498C1285.57 179.746 1291.95 172.717 1293.82 164.028L1324.04 23.766C1325.91 15.0765 1322.99 6.01425 1316.4 0.0470535L1209.86 -96.2729C1203.27 -102.24 1193.97 -104.244 1185.47 -101.528L1048.72 -57.6161C1040.26 -54.8937 1033.87 -47.8352 1032 -39.1457Z" fill="url(#paint1_linear_132_15)"/>
</g>
<g opacity="0.0946098" filter="url(#filter2_d_132_15)">
<path d="M285.138 444.224L316.896 382.316C318.869 378.471 318.64 373.874 316.287 370.256L278.476 311.76C276.123 308.142 272.027 306.04 267.716 306.24L198.146 309.652C193.835 309.852 189.954 312.374 187.996 316.192L156.238 378.1C154.265 381.946 154.495 386.542 156.847 390.16L194.658 448.656C197.011 452.275 201.107 454.376 205.418 454.176L274.988 450.764C279.272 450.55 283.18 448.042 285.138 444.224Z" fill="url(#paint2_linear_132_15)"/>
</g>
<g opacity="0.0946098" filter="url(#filter3_d_132_15)">
<path d="M848.766 -2.42656L834.114 65.5919C833.203 69.8168 834.615 74.1969 837.823 77.083L889.486 123.8C892.695 126.686 897.196 127.656 901.308 126.347L967.624 105.045C971.737 103.736 974.833 100.296 975.736 96.1008L990.389 28.0824C991.299 23.8574 989.888 19.4773 986.679 16.5913L935.016 -30.1257C931.807 -33.0117 927.307 -33.9813 923.194 -32.6724L856.878 -11.3709C852.796 -10.0556 849.67 -6.62153 848.766 -2.42656Z" fill="url(#paint3_linear_132_15)"/>
</g>
<g opacity="0.0946098" filter="url(#filter4_d_132_15)">
<path d="M233.022 276.971L248.075 247.626C249.013 245.798 248.883 243.63 247.802 241.905L229.876 214.175C228.754 212.463 226.815 211.468 224.769 211.556L191.79 213.172C189.745 213.259 187.921 214.46 186.984 216.287L171.93 245.632C170.993 247.459 171.123 249.627 172.204 251.353L190.129 279.082C191.252 280.795 193.191 281.789 195.236 281.702L228.215 280.086C230.248 279.957 232.084 278.798 233.022 276.971Z" fill="url(#paint4_linear_132_15)"/>
</g>
<g opacity="0.0946098" filter="url(#filter5_d_132_15)">
<path d="M942.396 145.639L935.45 177.88C935.018 179.888 935.704 181.948 937.195 183.335L961.687 205.48C963.214 206.844 965.344 207.303 967.297 206.689L998.735 196.593C1000.69 195.979 1002.14 194.347 1002.57 192.34L1009.52 160.098C1009.95 158.091 1009.26 156.03 1007.77 154.643L983.28 132.498C981.753 131.134 979.622 130.675 977.669 131.289L946.232 141.386C944.302 142.036 942.828 143.631 942.396 145.639Z" fill="url(#paint5_linear_132_15)"/>
</g>
</g>
<defs>
<filter id="filter0_d_132_15" x="-173.9" y="147.687" width="344.777" height="313.145" filterUnits="userSpaceOnUse" color-interpolation-filters="sRGB">
<feFlood flood-opacity="0" result="BackgroundImageFix"/>
<feColorMatrix in="SourceAlpha" type="matrix" values="0 0 0 0 0 0 0 0 0 0 0 0 0 0 0 0 0 0 127 0" result="hardAlpha"/>
<feOffset dy="4"/>
<feGaussianBlur stdDeviation="2"/>
<feComposite in2="hardAlpha" operator="out"/>
<feColorMatrix type="matrix" values="0 0 0 0 0 0 0 0 0 0 0 0 0 0 0 0 0 0 0.25 0"/>
<feBlend mode="normal" in2="BackgroundImageFix" result="effect1_dropShadow_132_15"/>
<feBlend mode="normal" in="SourceGraphic" in2="effect1_dropShadow_132_15" result="shape"/>
</filter>
<filter id="filter1_d_132_15" x="997.225" y="-102.719" width="331.368" height="338.324" filterUnits="userSpaceOnUse" color-interpolation-filters="sRGB">
<feFlood flood-opacity="0" result="BackgroundImageFix"/>
<feColorMatrix in="SourceAlpha" type="matrix" values="0 0 0 0 0 0 0 0 0 0 0 0 0 0 0 0 0 0 127 0" result="hardAlpha"/>
<feOffset dy="4"/>
<feGaussianBlur stdDeviation="2"/>
<feComposite in2="hardAlpha" operator="out"/>
<feColorMatrix type="matrix" values="0 0 0 0 0 0 0 0 0 0 0 0 0 0 0 0 0 0 0.25 0"/>
<feBlend mode="normal" in2="BackgroundImageFix" result="effect1_dropShadow_132_15"/>
<feBlend mode="normal" in="SourceGraphic" in2="effect1_dropShadow_132_15" result="shape"/>
</filter>
<filter id="filter2_d_132_15" x="150.905" y="306.227" width="171.324" height="155.962" filterUnits="userSpaceOnUse" color-interpolation-filters="sRGB">
<feFlood flood-opacity="0" result="BackgroundImageFix"/>
<feColorMatrix in="SourceAlpha" type="matrix" values="0 0 0 0 0 0 0 0 0 0 0 0 0 0 0 0 0 0 127 0" result="hardAlpha"/>
<feOffset dy="4"/>
<feGaussianBlur stdDeviation="2"/>
<feComposite in2="hardAlpha" operator="out"/>
<feColorMatrix type="matrix" values="0 0 0 0 0 0 0 0 0 0 0 0 0 0 0 0 0 0 0.25 0"/>
<feBlend mode="normal" in2="BackgroundImageFix" result="effect1_dropShadow_132_15"/>
<feBlend mode="normal" in="SourceGraphic" in2="effect1_dropShadow_132_15" result="shape"/>
</filter>
<filter id="filter3_d_132_15" x="829.842" y="-33.2452" width="164.819" height="168.165" filterUnits="userSpaceOnUse" color-interpolation-filters="sRGB">
<feFlood flood-opacity="0" result="BackgroundImageFix"/>
<feColorMatrix in="SourceAlpha" type="matrix" values="0 0 0 0 0 0 0 0 0 0 0 0 0 0 0 0 0 0 127 0" result="hardAlpha"/>
<feOffset dy="4"/>
<feGaussianBlur stdDeviation="2"/>
<feComposite in2="hardAlpha" operator="out"/>
<feColorMatrix type="matrix" values="0 0 0 0 0 0 0 0 0 0 0 0 0 0 0 0 0 0 0.25 0"/>
<feBlend mode="normal" in2="BackgroundImageFix" result="effect1_dropShadow_132_15"/>
<feBlend mode="normal" in="SourceGraphic" in2="effect1_dropShadow_132_15" result="shape"/>
</filter>
<filter id="filter4_d_132_15" x="167.303" y="211.55" width="85.4003" height="78.1569" filterUnits="userSpaceOnUse" color-interpolation-filters="sRGB">
<feFlood flood-opacity="0" result="BackgroundImageFix"/>
<feColorMatrix in="SourceAlpha" type="matrix" values="0 0 0 0 0 0 0 0 0 0 0 0 0 0 0 0 0 0 127 0" result="hardAlpha"/>
<feOffset dy="4"/>
<feGaussianBlur stdDeviation="2"/>
<feComposite in2="hardAlpha" operator="out"/>
<feColorMatrix type="matrix" values="0 0 0 0 0 0 0 0 0 0 0 0 0 0 0 0 0 0 0.25 0"/>
<feBlend mode="normal" in2="BackgroundImageFix" result="effect1_dropShadow_132_15"/>
<feBlend mode="normal" in="SourceGraphic" in2="effect1_dropShadow_132_15" result="shape"/>
</filter>
<filter id="filter5_d_132_15" x="931.322" y="131.022" width="82.3217" height="83.9349" filterUnits="userSpaceOnUse" color-interpolation-filters="sRGB">
<feFlood flood-opacity="0" result="BackgroundImageFix"/>
<feColorMatrix in="SourceAlpha" type="matrix" values="0 0 0 0 0 0 0 0 0 0 0 0 0 0 0 0 0 0 127 0" result="hardAlpha"/>
<feOffset dy="4"/>
<feGaussianBlur stdDeviation="2"/>
<feComposite in2="hardAlpha" operator="out"/>
<feColorMatrix type="matrix" values="0 0 0 0 0 0 0 0 0 0 0 0 0 0 0 0 0 0 0.25 0"/>
<feBlend mode="normal" in2="BackgroundImageFix" result="effect1_dropShadow_132_15"/>
<feBlend mode="normal" in="SourceGraphic" in2="effect1_dropShadow_132_15" result="shape"/>
</filter>
<linearGradient id="paint0_linear_132_15" x1="75.334" y1="150.447" x2="-78.3744" y2="450.083" gradientUnits="userSpaceOnUse">
<stop stop-color="#D4145A"/>
<stop offset="1" stop-color="#2E3192"/>
</linearGradient>
<linearGradient id="paint1_linear_132_15" x1="1127.46" y1="227.039" x2="1198.38" y2="-102.17" gradientUnits="userSpaceOnUse">
<stop stop-color="#D4145A"/>
<stop offset="1" stop-color="#2E3192"/>
</linearGradient>
<linearGradient id="paint2_linear_132_15" x1="273.83" y1="307.506" x2="199.272" y2="452.847" gradientUnits="userSpaceOnUse">
<stop stop-color="#D4145A"/>
<stop offset="1" stop-color="#2E3192"/>
</linearGradient>
<linearGradient id="paint3_linear_132_15" x1="895.075" y1="126.707" x2="929.475" y2="-32.9798" gradientUnits="userSpaceOnUse">
<stop stop-color="#D4145A"/>
<stop offset="1" stop-color="#2E3192"/>
</linearGradient>
<linearGradient id="paint4_linear_132_15" x1="227.662" y1="212.178" x2="192.324" y2="281.064" gradientUnits="userSpaceOnUse">
<stop stop-color="#D4145A"/>
<stop offset="1" stop-color="#2E3192"/>
</linearGradient>
<linearGradient id="paint5_linear_132_15" x1="964.342" y1="206.836" x2="980.647" y2="131.151" gradientUnits="userSpaceOnUse">
<stop stop-color="#D4145A"/>
<stop offset="1" stop-color="#2E3192"/>
</linearGradient>
</defs>
</svg>
