<svg width="21" height="20" viewBox="0 0 21 20" fill="none" xmlns="http://www.w3.org/2000/svg">
<path d="M0 3.92122C0.0368083 3.7581 0.066255 3.60207 0.103063 3.43895C0.22085 2.99924 0.434338 2.60207 0.765613 2.28292C1.36927 1.70136 1.96557 1.1198 2.57658 0.545335C3.08454 0.0701576 3.67347 -0.163885 4.36547 0.119803C4.6084 0.219094 4.84398 0.36803 5.02802 0.545335C5.94087 1.40349 6.83899 2.26874 7.72975 3.14108C8.12728 3.53115 8.38494 3.98505 8.2966 4.55243C8.23034 4.97796 7.97268 5.3042 7.67086 5.60207C7.1629 6.09143 6.65495 6.5808 6.14699 7.06307C5.88197 7.31838 5.88197 7.38221 6.02921 7.70846C6.61078 8.95668 7.49418 9.99214 8.44383 10.9851C9.39349 11.9709 10.4315 12.8574 11.6167 13.5737C12.0216 13.8148 12.4559 14.0134 12.8756 14.2333C13.067 14.3326 13.2142 14.2546 13.3541 14.1198C13.8841 13.6092 14.3994 13.0914 14.9442 12.595C15.1577 12.3964 15.4006 12.212 15.6656 12.0985C16.2104 11.8574 16.7331 11.9709 17.2042 12.2971C17.322 12.3822 17.4324 12.4815 17.5429 12.5808C18.4042 13.4035 19.2655 14.2191 20.1121 15.056C20.3182 15.2616 20.5096 15.4957 20.6274 15.751C20.8924 16.2971 20.7893 16.8503 20.3771 17.2829C19.7145 17.9851 19.0152 18.6588 18.3085 19.3184C17.9183 19.6801 17.4177 19.8645 16.8803 19.9496C16.814 19.9567 16.7478 19.978 16.6889 19.9921C16.4018 19.9921 16.1221 19.9921 15.8349 19.9921C15.7834 19.978 15.7392 19.9638 15.6877 19.9567C15.0472 19.829 14.3847 19.751 13.7663 19.5595C11.9185 18.9992 10.2474 18.0843 8.67941 17.0134C5.83044 15.0702 3.54832 12.6233 1.81833 9.70136C1.16314 8.60207 0.633103 7.44604 0.287105 6.21909C0.161957 5.77938 0.0957017 5.32548 0 4.87158C0 4.55952 0 4.24037 0 3.92122Z" fill="white"/>
</svg>
